#!OML:ASF H:\MichaelJackson\Top Level 1\Subject 1\Session 1\male.ASF
:FULLY-SPECIFIED
:DEGREES
638
root 4.53295 16.3098 31.3521 -378.305 2.73708 0.1233
lowerback 21.3034 -1.64201 -7.89279
upperback 7.59278 -3.78852 -1.07319
thorax -3.1351 -1.96746 4.19699
lowerneck -8.27357 -1.59229 3.41252
upperneck 0.428764 -2.5212 2.14111
head 1.51448 -1.19738 -0.00117992
rclavicle -7.2954e-014 1.59028e-015
rhumerus -47.9379 -14.1688 -60.3393
rradius 69.0841
rwrist -22.559
rhand -26.8423 -38.8023
rfingers 7.12502
rthumb -0.267766 -428.782
lclavicle -7.2954e-014 1.59028e-015
lhumerus -24.6695 -25.6579 75.6247
lradius 48.8432
lwrist 17.0733
lhand 9.14803 9.93891
lfingers 7.12502
lthumb 34.3178 36.6515
rfemur -85.9814 -21.0348 41.2743
rtibia 52.1801
rfoot -0.0288859 11.7478
rtoes -30.0586
lfemur -7.59496 17.1467 -18.0034
ltibia 42.388
lfoot -16.8311 -12.2578
ltoes 14.4242
639
root 4.50904 16.2865 31.3991 -378.623 3.24239 0.434565
lowerback 21.8736 -1.78646 -8.21535
upperback 7.82044 -4.08984 -1.26235
thorax -3.12545 -2.12353 4.26323
lowerneck -8.14203 -1.54142 3.42848
upperneck -0.0461439 -2.43352 2.06867
head 1.33701 -1.16636 -0.0184039
rclavicle 5.11871e-014 -2.38542e-014
rhumerus -48.2045 -14.8923 -60.871
rradius 69.1009
rwrist -20.8985
rhand -29.4431 -40.6337
rfingers 7.12502
rthumb -2.7796 -430.595
lclavicle 5.11871e-014 -2.38542e-014
lhumerus -23.998 -26.6765 75.3464
lradius 49.2842
lwrist 17.3372
lhand 9.14948 9.88544
lfingers 7.12502
lthumb 34.3192 36.5978
rfemur -88.2849 -20.8308 41.5175
rtibia 58.2307
rfoot 1.40916 10.4699
rtoes -27.8732
lfemur -7.23621 16.9396 -18.3525
ltibia 42.6527
lfoot -17.281 -11.5878
ltoes 12.787
640
root 4.48018 16.2653 31.4479 -378.818 3.97854 0.610946
lowerback 22.3076 -1.98226 -8.50104
upperback 7.98994 -4.43819 -1.38411
thorax -3.09816 -2.30225 4.3875
lowerneck -7.96075 -1.53183 3.41828
upperneck -0.435484 -2.39999 2.03615
head 1.18005 -1.15978 -0.0208034
rclavicle -4.11484e-014 2.38542e-015
rhumerus -48.5934 -15.4087 -61.4633
rradius 69.033
rwrist -17.8185
rhand -31.9202 -42.5727
rfingers 7.12502
rthumb -5.17169 -432.49
lclavicle -4.11484e-014 2.38542e-015
lhumerus -23.2926 -27.7209 75.1763
lradius 49.5572
lwrist 17.5553
lhand 9.1718 9.86753
lfingers 7.12502
lthumb 34.3404 36.5751
rfemur -90.4653 -20.7152 41.2242
rtibia 64.4383
rfoot 3.14968 10.129
rtoes -25.5774
lfemur -7.06369 16.7784 -18.5912
ltibia 42.9657
lfoot -17.7235 -11.1208
ltoes 11.2098
641
root 4.44571 16.2473 31.498 -378.852 4.91811 0.617995
lowerback 22.5709 -2.22774 -8.71932
upperback 8.08322 -4.82038 -1.4257
thorax -3.0595 -2.49616 4.56147
lowerneck -7.76373 -1.56147 3.38767
upperneck -0.684439 -2.42132 2.05666
head 1.0667 -1.17656 -0.00600804
rclavicle 5.38706e-014 -1.98785e-014
rhumerus -49.1257 -15.7827 -62.0597
rradius 68.8659
rwrist -13.5607
rhand -34.0433 -44.6811
rfingers 7.12502
rthumb -7.22132 -434.538
lclavicle 5.38706e-014 -1.98785e-014
lhumerus -22.5361 -28.7564 75.1394
lradius 49.6277
lwrist 17.6751
lhand 9.29278 9.94427
lfingers 7.12502
lthumb 34.4553 36.6258
rfemur -92.563 -20.7534 40.6408
rtibia 70.6522
rfoot 4.8662 10.932
rtoes -24.0054
lfemur -7.14114 16.6842 -18.6738
ltibia 43.3533
lfoot -18.1653 -10.8422
ltoes 9.7594
642
root 4.40553 16.2324 31.5489 -378.709 6.00987 0.426364
lowerback 22.6447 -2.51808 -8.83313
upperback 8.09689 -5.21946 -1.38035
thorax -3.00988 -2.69649 4.76542
lowerneck -7.60046 -1.62151 3.33445
upperneck -0.753916 -2.48909 2.15633
head 1.01783 -1.21111 0.0338799
rclavicle 1.43125e-014 6.36111e-015
rhumerus -49.7968 -16.1007 -62.6159
rradius 68.6194
rwrist -8.58024
rhand -35.6906 -46.7973
rfingers 7.12502
rthumb -8.81127 -436.593
lclavicle 1.43125e-014 6.36111e-015
lhumerus -21.7047 -29.7492 75.2381
lradius 49.4833
lwrist 17.6477
lhand 9.56817 10.124
lfingers 7.12502
lthumb 34.7166 36.7457
rfemur -94.5659 -20.9714 39.9711
rtibia 76.7414
rfoot 6.40276 12.8864
rtoes -23.2461
lfemur -7.50605 16.6765 -18.5613
ltibia 43.8315
lfoot -18.5986 -10.6594
ltoes 8.46225
643
root 4.36056 16.2208 31.5998 -378.395 7.19662 0.0350199
lowerback 22.5374 -2.84662 -8.80816
upperback 8.02932 -5.62138 -1.25874
thorax -2.96279 -2.89508 4.96447
lowerneck -7.50334 -1.70533 3.27658
upperneck -0.632995 -2.59791 2.32712
head 1.04204 -1.26045 0.0931128
rclavicle 1.73937e-014 -1.98785e-014
rhumerus -50.6056 -16.4216 -63.1201
rradius 68.3764
rwrist -3.5251
rhand -36.8582 -48.6595
rfingers 7.12502
rthumb -9.93781 -438.405
lclavicle 1.73937e-014 -1.98785e-014
lhumerus -20.8127 -30.6815 75.4642
lradius 49.1557
lwrist 17.4326
lhand 10.0069 10.4114
lfingers 7.12502
lthumb 35.1329 36.9363
rfemur -96.4277 -21.3678 39.3542
rtibia 82.6042
rfoot 7.76223 15.8492
rtoes -23.1876
lfemur -8.16034 16.7662 -18.2539
ltibia 44.3953
lfoot -19.0037 -10.4317
ltoes 7.3211
